<?xml version="1.0" encoding="utf-8"?>
<!-- Generator: Adobe Illustrator 22.0.1, SVG Export Plug-In . SVG Version: 6.00 Build 0)  -->
<svg version="1.1" xmlns="http://www.w3.org/2000/svg" xmlns:xlink="http://www.w3.org/1999/xlink" x="0px" y="0px"
	 viewBox="0 0 341.5 223.6" style="enable-background:new 0 0 341.5 223.6;" xml:space="preserve">
<style type="text/css">
	.st0{fill:url(#SVGID_1_);}
	.st1{fill:url(#SVGID_2_);}
	.st2{fill:url(#SVGID_3_);}
	.st3{fill:url(#SVGID_4_);}
	.st4{fill:url(#SVGID_5_);}
	.st5{fill:url(#SVGID_6_);}
	.st6{fill:url(#SVGID_7_);}
	.st7{fill:#353535;}
</style>
<g id="Layer_1">
</g>
<g id="Layer_2">
	<g>
		<g>
			<linearGradient id="SVGID_1_" gradientUnits="userSpaceOnUse" x1="124.1607" y1="107.5378" x2="124.1607" y2="17.6921">
				<stop  offset="0" style="stop-color:#22957F"/>
				<stop  offset="1" style="stop-color:#33A978"/>
			</linearGradient>
			<path class="st0" d="M118.3,30.9l-16.6,68.3c0,0,2.3,7.6,15,8.3s13.9-8.3,13.9-8.3l2.4-9.1l13.6-58.1c0,0-0.9-14.4-12.6-14.4
				C120.7,17.7,118.3,30.9,118.3,30.9z"/>
			<linearGradient id="SVGID_2_" gradientUnits="userSpaceOnUse" x1="39.3593" y1="80.6682" x2="39.3593" y2="17.6921">
				<stop  offset="0" style="stop-color:#22957F"/>
				<stop  offset="1" style="stop-color:#33A978"/>
			</linearGradient>
			<path class="st1" d="M29.7,30.9l-8.6,35c0,0-3.9,14.8,13.4,14.8c12.7,0,14.8-12,14.8-12L58,32.1c0,0-0.9-14.4-12.6-14.4
				C32.1,17.7,29.7,30.9,29.7,30.9z"/>
			<linearGradient id="SVGID_3_" gradientUnits="userSpaceOnUse" x1="168.4411" y1="131.746" x2="168.4411" y2="0">
				<stop  offset="0" style="stop-color:#7FB539"/>
				<stop  offset="1" style="stop-color:#B2D235"/>
			</linearGradient>
			<path class="st2" d="M118.3,30.9c0,0,6.1-23.3,16.7-28s18.3-3.6,26,3.5c6.7,6.2,11.3,17.1,13.6,26.8c2.3,9.7,10.5,49.1,10.5,49.1
				s1.3,5.9,2.6,9.8s2.1,12.1,11.9,14.6c9.7,2.5,14.5-0.6,15.6-1.5s3.4-4.3,3.4-4.3s-6.5,22.1-17.8,28.1c-11.3,6-23,2.5-30.4-8.9
				c-7.4-11.4-11.7-37.5-14.2-47.4c-2.5-10.1-7.8-33.7-9.1-38.4s-1.4-14.8-13.1-15.6C121.7,17.7,118.3,30.9,118.3,30.9z"/>
			<linearGradient id="SVGID_4_" gradientUnits="userSpaceOnUse" x1="212.6132" y1="107.5378" x2="212.6132" y2="17.6921">
				<stop  offset="0" style="stop-color:#22957F"/>
				<stop  offset="1" style="stop-color:#33A978"/>
			</linearGradient>
			<path class="st3" d="M206.8,30.9l-16.6,68.3c0,0,2.3,7.6,15,8.3c12.7,0.7,13.9-8.3,13.9-8.3l2.4-9.1L235,32.1
				c0,0-0.9-14.4-12.6-14.4C209.2,17.7,206.8,30.9,206.8,30.9z"/>
			<linearGradient id="SVGID_5_" gradientUnits="userSpaceOnUse" x1="296.1669" y1="107.5378" x2="296.1669" y2="56.4191">
				<stop  offset="0" style="stop-color:#22957F"/>
				<stop  offset="1" style="stop-color:#33A978"/>
			</linearGradient>
			<path class="st4" d="M285.8,69.6l-7.3,29.6c0,0,2.3,7.6,15,8.3s13.9-8.3,13.9-8.3l2.4-9.1l3.3-14.9c0,0,5.4-18.9-11.6-18.9
				C287.4,56.4,285.8,69.6,285.8,69.6z"/>
			<linearGradient id="SVGID_6_" gradientUnits="userSpaceOnUse" x1="256.8936" y1="131.746" x2="256.8936" y2="0">
				<stop  offset="0" style="stop-color:#7FB539"/>
				<stop  offset="1" style="stop-color:#B2D235"/>
			</linearGradient>
			<path class="st5" d="M206.8,30.9c0,0,6.1-23.3,16.7-28s18.3-3.6,26,3.5c6.7,6.2,11.3,17.1,13.6,26.8c2.3,9.7,10.5,49.1,10.5,49.1
				s1.3,5.9,2.6,9.8s2.1,12.1,11.9,14.6c9.7,2.5,14.5-0.6,15.6-1.5c1-0.9,3.4-4.3,3.4-4.3s-6.5,22.1-17.8,28.1
				c-11.3,6-23,2.5-30.4-8.9S247,82.4,244.6,72.6c-2.5-10.1-7.8-33.7-9.1-38.4s-1.4-14.8-13.1-15.6
				C210.2,17.7,206.8,30.9,206.8,30.9z"/>
			<linearGradient id="SVGID_7_" gradientUnits="userSpaceOnUse" x1="79.9166" y1="131.746" x2="79.9166" y2="0">
				<stop  offset="0" style="stop-color:#7FB539"/>
				<stop  offset="1" style="stop-color:#B2D235"/>
			</linearGradient>
			<path class="st6" d="M29.8,30.9c0,0,6.1-23.3,16.7-28s18.3-3.6,26,3.5c6.7,6.2,11.3,17.1,13.6,26.8c2.3,9.7,10.5,49.1,10.5,49.1
				s1.3,5.9,2.6,9.8c1.3,3.9,2.1,12.1,11.9,14.6c9.7,2.5,14.5-0.6,15.6-1.5s3.4-4.3,3.4-4.3s-6.5,22.1-17.8,28.1
				c-11.3,6-23,2.5-30.4-8.9S70.1,82.4,67.6,72.6c-2.5-10.1-7.8-33.7-9.1-38.4s-1.4-14.8-13.1-15.6C33.2,17.7,29.8,30.9,29.8,30.9z"
				/>
		</g>
		<g>
			<g>
				<path class="st7" d="M0,213.3L7.4,160h16.5l-5.3,37.5H35l-2.2,15.8H0z"/>
				<path class="st7" d="M37.3,213.3l5.1-36.8l1.7-0.7c2.1-0.8,4.1-1.4,5.9-1.8c1.8-0.3,3.8-0.5,5.9-0.5h1.1l-5.5,39.8H37.3z
					 M50.2,172c-1,0-1.9-0.1-2.7-0.3c-0.8-0.2-1.5-0.5-2.1-1c-0.6-0.5-1-1.2-1.2-2.1c-0.3-0.9-0.3-2.2-0.1-3.7
					c0.2-1.5,0.6-2.8,1.1-3.7c0.5-0.9,1.1-1.6,1.9-2.1c0.7-0.5,1.5-0.8,2.4-1c0.9-0.2,1.8-0.3,2.8-0.3c0.9,0,1.8,0.1,2.7,0.3
					c0.8,0.2,1.6,0.5,2.1,1c0.6,0.5,1,1.2,1.2,2.1c0.2,0.9,0.2,2.2,0,3.7c-0.2,1.6-0.6,2.8-1,3.7c-0.5,0.9-1.1,1.6-1.8,2.1
					c-0.7,0.5-1.5,0.8-2.4,1C52.1,172,51.2,172,50.2,172z"/>
				<path class="st7" d="M83.6,213.3l2.8-20c0.2-1.4,0.3-2.6,0.3-3.4c0-0.8-0.2-1.5-0.6-1.9c-0.4-0.4-1-0.7-1.8-0.8
					c-0.8-0.1-2-0.2-3.4-0.2h-1.6c-0.9,0-1.5,0.2-2.1,0.6s-0.9,0.9-1.2,1.5c-0.3,0.6-0.5,1.3-0.6,2.1c-0.1,0.8-0.3,1.6-0.4,2.5
					l-2.7,19.7H58.1l5.5-39.8h7.1l4.7,3.4c0.9-0.8,1.8-1.5,2.5-2.1c0.7-0.5,1.4-1,2.1-1.3c0.7-0.3,1.5-0.5,2.3-0.6
					c0.8-0.1,1.7-0.2,2.8-0.2c3,0,5.6,0.4,7.8,1.1c2.2,0.8,3.9,2,5.3,3.6c1.3,1.6,2.2,3.8,2.6,6.4c0.4,2.6,0.3,5.8-0.1,9.5l-2.8,20
					H83.6z"/>
				<path class="st7" d="M139.6,211c-0.8,0.3-1.8,0.6-3,1c-1.2,0.4-2.6,0.7-4.1,1c-1.5,0.3-3.1,0.6-4.9,0.8
					c-1.8,0.2-3.6,0.3-5.5,0.3c-6.8,0-11.6-1.6-14.6-4.8c-3-3.2-3.9-8.5-2.9-15.8c1-7.3,3.4-12.6,7.2-15.8c3.8-3.2,8.7-4.8,14.8-4.8
					c3,0,5.7,0.4,8,1.2c2.3,0.8,4.1,2,5.5,3.7c1.4,1.7,2.3,3.8,2.8,6.4c0.5,2.6,0.5,5.7,0,9.4c-2.6,1.3-5.1,2.1-7.4,2.4
					c-2.3,0.3-4.8,0.5-7.3,0.5H119c-0.1,0.9,0.1,1.5,0.3,2c0.3,0.5,0.6,0.8,1.1,1.1c0.5,0.2,1,0.4,1.7,0.4c0.7,0,1.4,0,2.1,0
					c1.2,0,2.3,0,3.3-0.1c1-0.1,2-0.2,3-0.3c1-0.1,2-0.3,3.1-0.5c1-0.2,2.2-0.5,3.5-0.8L139.6,211z M128.3,190.4
					c0.2-1,0.2-1.8,0-2.4c-0.2-0.5-0.5-0.9-0.8-1.2c-0.4-0.2-0.8-0.4-1.3-0.4c-0.5,0-0.9,0-1.2,0c-0.6,0-1.2,0-1.8,0.1
					s-1.1,0.2-1.6,0.5c-0.5,0.3-0.9,0.7-1.2,1.2c-0.3,0.6-0.5,1.3-0.5,2.3H128.3z"/>
			</g>
		</g>
		<g>
			<g>
				<path class="st7" d="M211.5,213.3l7.4-53.3h16.5l-5.3,37.5h16.3l-2.2,15.8H211.5z"/>
				<path class="st7" d="M248.9,213.3l5.1-36.8l1.7-0.7c2.1-0.8,4.1-1.4,5.9-1.8c1.8-0.3,3.8-0.5,5.9-0.5h1.1l-5.5,39.8H248.9z
					 M261.8,172c-1,0-1.9-0.1-2.7-0.3c-0.8-0.2-1.5-0.5-2.1-1c-0.6-0.5-1-1.2-1.2-2.1c-0.3-0.9-0.3-2.2-0.1-3.7
					c0.2-1.5,0.6-2.8,1.1-3.7c0.5-0.9,1.1-1.6,1.9-2.1c0.7-0.5,1.5-0.8,2.4-1c0.9-0.2,1.8-0.3,2.8-0.3c0.9,0,1.8,0.1,2.7,0.3
					c0.8,0.2,1.6,0.5,2.1,1c0.6,0.5,1,1.2,1.2,2.1c0.2,0.9,0.2,2.2,0,3.7c-0.2,1.6-0.6,2.8-1,3.7c-0.5,0.9-1.1,1.6-1.8,2.1
					c-0.7,0.5-1.5,0.8-2.4,1C263.6,172,262.7,172,261.8,172z"/>
				<path class="st7" d="M272.4,213.3l3.8-27h-4.8l1.8-12.8h4.8c0.6-3.6,1.4-6.6,2.4-9c1-2.3,2.2-4.2,3.6-5.6c1.4-1.4,3-2.4,4.9-2.9
					c1.9-0.5,4.1-0.8,6.6-0.8c0.9,0,1.9,0,3,0.1c1.1,0.1,2.3,0.2,3.4,0.4c1.1,0.2,2.2,0.5,3.3,0.9c1.1,0.4,2.1,0.8,3,1.4l-6.8,12.3
					c-1-0.3-2-0.6-2.9-0.7c-1-0.1-1.9-0.1-2.8-0.1c-0.6,0-1,0-1.4,0.1c-0.4,0.1-0.7,0.2-1,0.5c-0.3,0.3-0.5,0.7-0.6,1.2
					c-0.2,0.6-0.3,1.3-0.5,2.3h10.7l-1.8,12.8h-10.7l-3.8,27H272.4z"/>
				<path class="st7" d="M337.8,211c-0.8,0.3-1.8,0.6-3,1c-1.2,0.4-2.5,0.7-4,1c-1.5,0.3-3.1,0.6-4.9,0.8c-1.8,0.2-3.6,0.3-5.5,0.3
					c-6.8,0-11.6-1.6-14.6-4.8c-3-3.2-3.9-8.5-2.9-15.8c1-7.3,3.4-12.6,7.2-15.8c3.8-3.2,8.7-4.8,14.8-4.8c3,0,5.7,0.4,8,1.2
					c2.3,0.8,4.1,2,5.5,3.7c1.4,1.7,2.3,3.8,2.8,6.4c0.5,2.6,0.5,5.7,0,9.4c-2.6,1.3-5.1,2.1-7.3,2.4c-2.3,0.3-4.8,0.5-7.3,0.5h-9.2
					c-0.1,0.9,0.1,1.5,0.3,2c0.3,0.5,0.6,0.8,1.1,1.1c0.5,0.2,1,0.4,1.7,0.4c0.7,0,1.4,0,2.1,0c1.2,0,2.3,0,3.3-0.1
					c1-0.1,2-0.2,3-0.3c1-0.1,2-0.3,3.1-0.5c1-0.2,2.2-0.5,3.5-0.8L337.8,211z M326.6,190.4c0.2-1,0.2-1.8,0-2.4
					c-0.2-0.5-0.5-0.9-0.8-1.2c-0.4-0.2-0.8-0.4-1.3-0.4c-0.5,0-0.9,0-1.2,0c-0.6,0-1.2,0-1.8,0.1c-0.6,0.1-1.1,0.2-1.6,0.5
					c-0.5,0.3-0.9,0.7-1.2,1.2c-0.3,0.6-0.5,1.3-0.5,2.3H326.6z"/>
			</g>
		</g>
		<g>
			<g>
				<path class="st7" d="M173,223.6l1.4-10.4h-22l0.3-2.4c0.4-2.6,1.1-5,2.2-7.2c1.1-2.1,2.2-4.4,3.5-6.9l14.1-26.5h18l-17.2,28.3h4
					c0.5-1.6,1.3-3.1,2.1-4.6c0.9-1.4,2-2.9,3.3-4.4l5.1-5.9h7.2l-2,13.6h6.4l-2.2,15.8h-6.4l-1.4,10.4H173z"/>
			</g>
		</g>
	</g>
</g>
</svg>
