<?xml version="1.0" encoding="utf-8"?>
<!-- Generator: Adobe Illustrator 22.0.1, SVG Export Plug-In . SVG Version: 6.00 Build 0)  -->
<svg version="1.1" xmlns="http://www.w3.org/2000/svg" xmlns:xlink="http://www.w3.org/1999/xlink" x="0px" y="0px"
	 viewBox="0 0 341.5 223.6" style="enable-background:new 0 0 341.5 223.6;" xml:space="preserve">
<style type="text/css">
	.st0{fill:#FFFFFF;}
</style>
<g id="Layer_1">
</g>
<g id="Layer_2">
	<g>
		<path class="st0" d="M301.5,56.4c-14.1,0-15.7,13.2-15.7,13.2L278.5,99c-1.3-2.6-1.8-5.2-2.3-7c-1.3-3.9-2.6-9.8-2.6-9.8
			s-8.3-39.4-10.5-49.1c-2.3-9.7-6.9-20.6-13.6-26.8c-7.7-7.2-15.4-8.2-26-3.5c-8.6,3.8-14.2,19.8-16.1,25.8
			c-0.5,1.3-0.6,2.2-0.6,2.2l-16.6,68.3c0,0,0,0.1,0.1,0.3c-1.4-2.7-1.9-5.6-2.5-7.4c-1.3-3.9-2.6-9.8-2.6-9.8s-8.3-39.4-10.5-49.1
			c-2.3-9.7-6.9-20.6-13.6-26.8c-7.7-7.2-15.4-8.2-26-3.5c-8.6,3.8-14.2,19.8-16.1,25.8c-0.5,1.3-0.7,2.2-0.7,2.2l-16.6,68.3
			c0,0,0.2,0.6,0.7,1.4c-1.9-3-2.5-6.4-3.2-8.5c-1.3-3.9-2.6-9.8-2.6-9.8s-8.3-39.4-10.5-49.1c-2.3-9.7-6.9-20.6-13.6-26.8
			c-7.7-7.2-15.4-8.2-26-3.5c-8.2,3.6-13.7,18.3-15.8,24.8c-0.8,1.8-1,3.2-1,3.2l-8.6,35c0,0-3.9,14.8,13.4,14.8
			c12.7,0,14.8-12,14.8-12L58,32.1c0,0,0-0.4-0.1-1c0.2,1.1,0.4,2.2,0.7,3c1.3,4.8,6.5,28.3,9.1,38.4c2.5,9.8,6.8,36,14.2,47.4
			c7.4,11.4,19.1,14.9,30.4,8.9c10.3-5.4,16.6-24,17.7-27.5c0.6-1.2,0.7-2.1,0.7-2.1l2.4-9.1l13.6-58c0,0,0-0.1,0-0.2
			c0.2,0.8,0.3,1.6,0.5,2.2c1.3,4.8,6.5,28.3,9.1,38.4c2.4,9.8,6.8,36,14.2,47.4c7.4,11.4,19.1,14.9,30.4,8.9
			c11.3-6,17.9-28.1,17.9-28.1c0.4-0.9,0.5-1.6,0.5-1.6l2.4-9.1l13.6-58c0,0,0-0.1,0-0.2c0.2,0.8,0.3,1.6,0.5,2.2
			c1.3,4.8,6.5,28.3,9.1,38.4c2.4,9.8,6.8,36,14.2,47.4c7.4,11.4,19.1,14.9,30.4,8.9c11.1-5.9,17.6-27.4,17.8-28
			c0,0.1-0.2,0.3-0.4,0.5c0.6-1.2,0.7-2.1,0.7-2.1l2.4-9.1l3.3-14.8C313,75.3,318.4,56.4,301.5,56.4z M213.1,106.3
			c0.8-0.3,1.5-0.7,2-1.2C214.9,105.4,214.2,105.9,213.1,106.3z"/>
		<polygon class="st0" points="23.9,160 7.4,160 0,213.3 32.9,213.3 35,197.5 18.7,197.5 		"/>
		<path class="st0" d="M50.1,174.1c-1.9,0.4-3.8,1-5.9,1.8l-1.7,0.7l-5.1,36.8h14.3l5.5-39.8H56C53.9,173.5,51.9,173.7,50.1,174.1z"
			/>
		<path class="st0" d="M58.3,161.2c-0.2-0.9-0.6-1.6-1.2-2.1c-0.6-0.5-1.3-0.8-2.1-1c-0.9-0.2-1.8-0.3-2.7-0.3c-1,0-1.9,0.1-2.8,0.3
			c-0.9,0.2-1.7,0.5-2.4,1c-0.7,0.5-1.4,1.2-1.9,2.1c-0.5,0.9-0.9,2.2-1.1,3.7c-0.2,1.6-0.2,2.8,0.1,3.7c0.2,0.9,0.7,1.6,1.2,2.1
			c0.6,0.5,1.3,0.8,2.1,1c0.8,0.2,1.7,0.3,2.7,0.3c0.9,0,1.9-0.1,2.8-0.3c0.9-0.2,1.7-0.5,2.4-1c0.7-0.5,1.3-1.2,1.8-2.1
			c0.5-0.9,0.8-2.2,1-3.7C58.5,163.4,58.5,162.1,58.3,161.2z"/>
		<path class="st0" d="M98.2,177.4c-1.3-1.6-3.1-2.9-5.3-3.6c-2.2-0.8-4.8-1.1-7.8-1.1c-1.1,0-2,0.1-2.8,0.2
			c-0.8,0.1-1.5,0.3-2.3,0.6c-0.7,0.3-1.4,0.7-2.1,1.3c-0.7,0.6-1.5,1.3-2.5,2.1l-4.7-3.4h-7.1l-5.5,39.8h14.2l2.7-19.7
			c0.1-0.8,0.3-1.7,0.4-2.5c0.1-0.8,0.3-1.5,0.6-2.1c0.3-0.6,0.7-1.1,1.2-1.5s1.2-0.6,2.1-0.6h1.6c1.4,0,2.6,0.1,3.4,0.2
			c0.8,0.1,1.4,0.4,1.8,0.8c0.4,0.4,0.6,1.1,0.6,1.9c0,0.9-0.1,2-0.3,3.4l-2.8,20h14.3l2.8-20c0.5-3.7,0.5-6.9,0.1-9.5
			C100.4,181.2,99.5,179.1,98.2,177.4z"/>
		<path class="st0" d="M140.1,177.7c-1.4-1.7-3.2-2.9-5.5-3.7c-2.3-0.8-4.9-1.2-8-1.2c-6.1,0-11,1.6-14.8,4.8
			c-3.8,3.2-6.2,8.5-7.2,15.8c-1,7.3-0.1,12.6,2.9,15.8c3,3.2,7.8,4.8,14.6,4.8c2,0,3.8-0.1,5.5-0.3c1.8-0.2,3.4-0.5,4.9-0.8
			c1.5-0.3,2.9-0.6,4.1-1c1.2-0.3,2.2-0.7,3-1l-2.4-12.9c-1.3,0.4-2.4,0.6-3.5,0.8c-1,0.2-2.1,0.4-3.1,0.5c-1,0.1-2,0.2-3,0.3
			c-1,0.1-2.1,0.1-3.3,0.1c-0.8,0-1.5,0-2.1,0c-0.7,0-1.3-0.1-1.7-0.4c-0.5-0.2-0.9-0.6-1.1-1.1c-0.3-0.5-0.4-1.1-0.3-2h9.2
			c2.6,0,5-0.2,7.3-0.5c2.3-0.3,4.8-1.1,7.4-2.4c0.5-3.6,0.5-6.8,0-9.4C142.4,181.5,141.5,179.4,140.1,177.7z M128.3,190.4h-8.4
			c0-0.9,0.2-1.7,0.5-2.3c0.3-0.5,0.7-0.9,1.2-1.2c0.5-0.2,1-0.4,1.6-0.5s1.2-0.1,1.8-0.1c0.3,0,0.8,0,1.2,0c0.5,0,0.9,0.2,1.3,0.4
			c0.4,0.3,0.6,0.7,0.8,1.2C128.5,188.6,128.5,189.4,128.3,190.4z"/>
		<polygon class="st0" points="235.4,160 218.9,160 211.5,213.3 244.4,213.3 246.5,197.5 230.2,197.5 		"/>
		<path class="st0" d="M261.6,174.1c-1.9,0.4-3.8,1-5.9,1.8l-1.7,0.7l-5.1,36.8h14.3l5.5-39.8h-1.1
			C265.4,173.5,263.5,173.7,261.6,174.1z"/>
		<path class="st0" d="M268.6,159.1c-0.6-0.5-1.3-0.8-2.1-1c-0.9-0.2-1.8-0.3-2.7-0.3c-1,0-1.9,0.1-2.8,0.3c-0.9,0.2-1.7,0.5-2.4,1
			c-0.7,0.5-1.4,1.2-1.9,2.1c-0.5,0.9-0.9,2.2-1.1,3.7c-0.2,1.6-0.2,2.8,0.1,3.7c0.3,0.9,0.7,1.6,1.2,2.1c0.6,0.5,1.3,0.8,2.1,1
			c0.8,0.2,1.7,0.3,2.7,0.3c0.9,0,1.9-0.1,2.8-0.3c0.9-0.2,1.7-0.5,2.4-1c0.7-0.5,1.3-1.2,1.8-2.1c0.5-0.9,0.8-2.2,1-3.7
			c0.2-1.5,0.2-2.8,0-3.7C269.6,160.3,269.2,159.6,268.6,159.1z"/>
		<path class="st0" d="M292.2,173.5c0.2-0.9,0.3-1.7,0.5-2.3c0.2-0.6,0.4-1,0.6-1.2c0.3-0.2,0.6-0.4,1-0.5c0.4-0.1,0.8-0.1,1.4-0.1
			c0.9,0,1.8,0.1,2.8,0.1c0.9,0.1,1.9,0.3,2.9,0.7l6.8-12.3c-0.9-0.5-1.9-1-3-1.4c-1.1-0.4-2.2-0.7-3.3-0.9
			c-1.1-0.2-2.3-0.3-3.4-0.4c-1.1-0.1-2.1-0.1-3-0.1c-2.5,0-4.7,0.3-6.6,0.8c-1.9,0.6-3.5,1.5-4.9,2.9c-1.4,1.4-2.6,3.3-3.6,5.6
			c-1,2.4-1.8,5.4-2.4,9h-4.8l-1.8,12.8h4.8l-3.8,27h14.3l3.8-27h10.7l1.8-12.8H292.2z"/>
		<path class="st0" d="M326.4,196.4c2.6,0,5-0.2,7.3-0.5c2.3-0.3,4.8-1.1,7.3-2.4c0.5-3.6,0.5-6.8,0-9.4c-0.5-2.6-1.4-4.7-2.8-6.4
			c-1.4-1.7-3.2-2.9-5.5-3.7c-2.3-0.8-4.9-1.2-8-1.2c-6.1,0-11,1.6-14.8,4.8c-3.8,3.2-6.2,8.5-7.2,15.8c-1,7.3-0.1,12.6,2.9,15.8
			c3,3.2,7.8,4.8,14.6,4.8c2,0,3.8-0.1,5.5-0.3c1.8-0.2,3.4-0.5,4.9-0.8c1.5-0.3,2.8-0.6,4-1c1.2-0.3,2.2-0.7,3-1l-2.4-12.9
			c-1.3,0.4-2.4,0.6-3.5,0.8c-1,0.2-2.1,0.4-3.1,0.5c-1,0.1-2,0.2-3,0.3c-1,0.1-2.1,0.1-3.3,0.1c-0.8,0-1.5,0-2.1,0
			c-0.7,0-1.3-0.1-1.7-0.4c-0.5-0.2-0.9-0.6-1.1-1.1c-0.3-0.5-0.4-1.1-0.3-2H326.4z M318.7,188.2c0.3-0.5,0.7-0.9,1.2-1.2
			c0.5-0.2,1-0.4,1.6-0.5c0.6-0.1,1.2-0.1,1.8-0.1c0.3,0,0.8,0,1.2,0c0.5,0,0.9,0.2,1.3,0.4c0.4,0.3,0.6,0.7,0.8,1.2
			c0.2,0.6,0.2,1.4,0,2.4h-8.4C318.2,189.5,318.4,188.7,318.7,188.2z"/>
		<path class="st0" d="M195,183.9h-7.2l-5.1,5.9c-1.3,1.5-2.4,2.9-3.3,4.4c-0.9,1.5-1.6,3-2.1,4.6h-4l17.2-28.3h-18l-14.1,26.5
			c-1.3,2.5-2.5,4.7-3.5,6.9c-1,2.1-1.8,4.5-2.2,7.2l-0.3,2.4h22l-1.4,10.4h16.5l1.4-10.4h6.4l2.2-15.8h-6.4L195,183.9z"/>
	</g>
</g>
</svg>
