<svg xmlns="http://www.w3.org/2000/svg" width="35.969" height="36" viewBox="0 0 35.969 36">
  <metadata><?xpacket begin="﻿" id="W5M0MpCehiHzreSzNTczkc9d"?>
<x:xmpmeta xmlns:x="adobe:ns:meta/" x:xmptk="Adobe XMP Core 5.6-c142 79.160924, 2017/07/13-01:06:39        ">
   <rdf:RDF xmlns:rdf="http://www.w3.org/1999/02/22-rdf-syntax-ns#">
      <rdf:Description rdf:about=""/>
   </rdf:RDF>
</x:xmpmeta>
                                                                                                    
                                                                                                    
                                                                                                    
                                                                                                    
                                                                                                    
                                                                                                    
                                                                                                    
                                                                                                    
                                                                                                    
                                                                                                    
                                                                                                    
                                                                                                    
                                                                                                    
                                                                                                    
                                                                                                    
                                                                                                    
                                                                                                    
                                                                                                    
                                                                                                    
                                                                                                    
                           
<?xpacket end="w"?></metadata>
<defs>
    <style>
      .cls-1 {
        fill: #fff;
        fill-rule: evenodd;
      }
    </style>
  </defs>
  <path id="ok" class="cls-1" d="M502.437,2929.63a0.732,0.732,0,0,1-.542-0.22l-6.034-6.04a0.762,0.762,0,0,1,0-1.08,0.778,0.778,0,0,1,1.084,0l5.433,5.43,14.588-17.47a0.811,0.811,0,0,1,.6-0.26,0.776,0.776,0,0,1,.491.17,0.8,0.8,0,0,1,.086,1.09l-15.1,18.1a0.939,0.939,0,0,1-.568.28h-0.037Zm2.522,11.36a18,18,0,1,1,9.514-33.24,0.752,0.752,0,0,1-.4,1.39h0a0.776,0.776,0,0,1-.393-0.11,16.471,16.471,0,1,0,5.214,5.21,0.759,0.759,0,0,1,.246-1.04,0.775,0.775,0,0,1,.392-0.11,0.752,0.752,0,0,1,.647.36A17.973,17.973,0,0,1,504.959,2940.99Z" transform="translate(-487 -2905)"/>
</svg>
