<?xml version="1.0" encoding="UTF-8"?>
<svg width="191px" height="34px" viewBox="0 0 191 34" version="1.1" xmlns="http://www.w3.org/2000/svg" xmlns:xlink="http://www.w3.org/1999/xlink">
    <!-- Generator: Sketch 49.2 (51160) - http://www.bohemiancoding.com/sketch -->
    <title>Group 52</title>
    <desc>Created with Sketch.</desc>
    <defs></defs>
    <g id="vtb_ru" stroke="none" stroke-width="1" fill="none" fill-rule="evenodd">
        <g id="Group-52">
            <path d="M23.816,14.185 L1.603,14.185 L0,18.588 L22.213,18.588 L23.816,14.185 Z M26.217,7.58 L4.003,7.58 L2.4,11.983 L24.614,11.983 L26.217,7.58 Z M27.019,5.378 L4.805,5.378 L6.408,0.975 L28.622,0.975 L27.019,5.378 Z" id="Fill-1" fill="#009FDF"></path>
            <path d="M185.553,7.59 L190.758,7.59 L190.758,9.052 L187.305,9.052 L187.305,11.17 L190.481,11.17 L190.481,12.593 L187.305,12.593 L187.305,14.913 L190.796,14.913 L190.796,16.387 L185.553,16.387 L185.553,7.59 Z M176.096,7.59 L177.835,7.59 L177.835,10.817 C177.835,11.737 177.785,13.35 177.735,14.219 L177.76,14.219 L181.478,7.59 L183.432,7.59 L183.432,16.387 L181.692,16.387 L181.692,13.161 C181.692,12.241 181.743,10.628 181.793,9.758 L181.768,9.758 L178.012,16.387 L176.096,16.387 L176.096,7.59 Z M166.879,7.59 L168.669,7.59 L168.669,11.094 L172.185,11.094 L172.185,7.59 L173.975,7.59 L173.975,16.387 L172.185,16.387 L172.185,12.581 L168.669,12.581 L168.669,16.387 L166.879,16.387 L166.879,7.59 Z M162.515,13.022 L161.784,10.968 C161.595,10.438 161.292,9.43 161.179,8.976 L161.153,8.976 C161.027,9.43 160.7,10.438 160.511,10.968 L159.779,13.022 L162.515,13.022 Z M160.183,7.59 L162.187,7.59 L165.691,16.387 L163.762,16.387 L162.994,14.358 L159.326,14.358 L158.557,16.387 L156.73,16.387 L160.183,7.59 Z M152.265,15.064 C153.702,15.064 154.382,14.698 154.382,13.779 C154.382,12.883 153.676,12.53 152.176,12.53 L151.685,12.53 L151.685,15.064 L152.265,15.064 Z M152.151,11.296 C153.361,11.296 154.193,11.094 154.193,10.086 C154.193,9.115 153.349,8.901 152.328,8.901 L151.685,8.901 L151.685,11.296 L152.151,11.296 Z M149.971,7.59 L152.668,7.59 C154.634,7.59 155.933,8.22 155.933,9.846 C155.933,10.854 155.328,11.611 154.105,11.862 L154.105,11.888 C155.391,12.051 156.159,12.821 156.159,13.98 C156.159,15.808 154.445,16.387 152.706,16.387 L149.971,16.387 L149.971,7.59 Z M146.375,11.988 C146.375,10.023 145.417,8.813 143.942,8.813 C142.531,8.813 141.573,10.073 141.573,12.001 C141.573,13.917 142.531,15.165 143.993,15.165 C145.392,15.165 146.375,13.879 146.375,11.988 Z M139.669,12.001 C139.669,9.09 141.283,7.439 144.043,7.439 C146.627,7.439 148.266,9.165 148.266,11.951 C148.266,14.761 146.564,16.539 143.942,16.539 C141.346,16.539 139.669,14.787 139.669,12.001 Z M134.133,11.862 L131.31,7.59 L133.427,7.59 L134.373,9.203 C134.713,9.796 135.053,10.401 135.318,10.892 C135.57,10.401 135.936,9.695 136.213,9.216 L137.146,7.59 L139.036,7.59 L136.326,11.862 L139.251,16.387 L137.146,16.387 L136.251,14.875 C135.923,14.333 135.381,13.337 135.205,12.959 C135.003,13.337 134.411,14.321 134.07,14.875 L133.15,16.387 L131.134,16.387 L134.133,11.862 Z M127.664,13.022 L126.933,10.968 C126.744,10.438 126.441,9.43 126.328,8.976 L126.303,8.976 C126.177,9.43 125.849,10.438 125.66,10.968 L124.929,13.022 L127.664,13.022 Z M125.332,7.59 L127.336,7.59 L130.84,16.387 L128.912,16.387 L128.143,14.358 L124.475,14.358 L123.707,16.387 L121.879,16.387 L125.332,7.59 Z M118.322,11.686 C119.519,11.686 120.338,11.422 120.338,10.3 C120.338,9.254 119.645,8.926 118.322,8.926 L118.007,8.926 L118.007,11.686 L118.322,11.686 Z M116.23,7.59 L118.448,7.59 C120.401,7.59 122.153,8.107 122.153,10.287 C122.153,12.392 120.464,13.035 118.448,13.035 L118.007,13.035 L118.007,16.387 L116.23,16.387 L116.23,7.59 Z M110.706,9.065 L108.274,9.065 L108.274,7.59 L114.941,7.59 L114.941,9.065 L112.509,9.065 L112.509,16.387 L110.706,16.387 L110.706,9.065 Z M100.835,11.988 C100.835,9.254 102.838,7.502 105.498,7.502 C106.254,7.502 106.897,7.565 107.628,7.817 L107.502,9.342 C106.872,9.052 106.317,8.939 105.637,8.939 C103.885,8.939 102.725,9.997 102.725,11.938 C102.725,13.892 104.011,15.001 105.662,15.001 C106.305,15.001 106.91,14.925 107.603,14.661 L107.666,16.186 C107.111,16.375 106.368,16.476 105.611,16.476 C102.775,16.476 100.835,14.812 100.835,11.988 Z M46.804,19.922 L46.804,20.013 C47.81,20.379 48.77,21.019 49.272,21.43 C50.827,22.71 51.512,24.401 51.512,26.595 C51.512,30.206 49.592,32.812 46.438,33.634 C45.479,33.909 44.473,34 42.599,34 L33.046,34 L33.046,7.58 L41.502,7.58 C43.239,7.58 44.427,7.672 45.479,7.946 C48.541,8.769 50.552,10.871 50.552,14.208 C50.552,15.991 49.912,17.499 48.861,18.505 C48.404,18.962 47.764,19.51 46.804,19.922 Z M38.348,22.71 L38.348,29.658 L42.005,29.658 C43.102,29.658 44.107,29.566 44.839,28.881 C45.57,28.195 45.89,27.326 45.89,26.184 C45.89,25.315 45.661,24.493 45.204,23.898 C44.427,22.938 43.467,22.71 41.822,22.71 L38.348,22.71 Z M38.302,18.139 L41.273,18.139 C42.188,18.139 42.645,18.139 43.102,18.002 C44.336,17.636 45.113,16.539 45.113,15.031 C45.113,13.248 44.29,12.471 43.102,12.105 C42.599,11.968 42.096,11.923 41.09,11.923 L38.302,11.923 L38.302,18.139 Z M59.466,34 L59.466,12.014 L51.832,12.014 L51.832,7.58 L73.041,7.58 L71.533,12.014 L64.768,12.014 L64.768,34 L59.466,34 Z M74.687,34 L74.687,7.58 L91.873,7.58 L90.365,12.014 L79.943,12.014 L79.943,17.865 L84.194,17.865 C87.622,17.865 89.405,18.687 90.639,19.739 C91.599,20.562 93.245,22.39 93.245,26.001 C93.245,29.566 91.553,31.532 90.136,32.537 C88.491,33.68 86.754,34 83.234,34 L74.687,34 Z M79.943,29.566 L83.92,29.566 C85.428,29.566 86.342,29.201 86.982,28.378 C87.302,27.966 87.759,27.235 87.759,25.864 C87.759,24.493 87.302,23.533 86.388,22.847 C85.84,22.436 85.108,22.207 83.874,22.207 L79.943,22.207 L79.943,29.566 Z" id="Fill-2" fill="#263975"></path>
        </g>
    </g>
</svg>